<?xml version="1.0" standalone="no"?><!DOCTYPE svg PUBLIC "-//W3C//DTD SVG 1.1//EN" "http://www.w3.org/Graphics/SVG/1.1/DTD/svg11.dtd"><svg t="1727239721932" class="icon" viewBox="0 0 1024 1024" version="1.1" xmlns="http://www.w3.org/2000/svg" p-id="1733" xmlns:xlink="http://www.w3.org/1999/xlink" width="200" height="200"><path d="M515.4816 57.9584a460.8 460.8 0 1 0 460.8 460.8 460.8 460.8 0 0 0-460.8-460.8z m-38.8096 632.7296a18.1248 18.1248 0 0 1-24.4736 17.2032l-149.6064-41.6768a36.4544 36.4544 0 0 1-24.576-31.9488V433.152a18.1248 18.1248 0 0 1 24.576-17.1008l149.6064 41.6768a30.72 30.72 0 0 1 24.4736 29.3888z m0-259.9936l-149.6064-49.0496c-26.9312-10.24-26.9312-19.5584 0-26.9312l147.2512-34.4064a100.864 100.864 0 0 1 46.592 0l149.6064 41.7792c26.9312 7.2704 26.9312 19.5584 2.4576 24.4736l-149.6064 44.1344a75.776 75.776 0 0 1-46.6944 0z m71.168 277.1968a17.408 17.408 0 0 1-24.4736-17.2032V489.5744a37.1712 37.1712 0 0 1 24.4736-31.8464l149.6064-41.6768a17.408 17.408 0 0 1 24.576 17.1008v63.7952a109.8752 109.8752 0 0 0-49.0496-10.24 122.0608 122.0608 0 0 0-122.88 125.1328 118.6816 118.6816 0 0 0 34.304 85.8112z m134.8608 12.6976a107.4176 107.4176 0 1 1 107.52-107.3152 107.52 107.52 0 0 1-107.52 107.3152z m16.384-172.544h-32.8704v48.7424H612.352v32.8704h53.8624v48.7424h32.8704v-48.7424h53.8624v-32.8704h-53.8624z" fill="#00CE73" p-id="1734"></path></svg>